<svg width="267" height="34" viewBox="0 0 267 34" fill="none" xmlns="http://www.w3.org/2000/svg">
<g filter="url(#filter0_i_1688_249)">
<path d="M11.6875 6.03125L6.14062 24H0.25L8.60938 1.25H12.3438L11.6875 6.03125ZM16.2812 24L10.7188 6.03125L10 1.25H13.7812L22.1875 24H16.2812ZM16.0625 15.5156V19.75H4.39062V15.5156H16.0625ZM49.1406 14.3281H43.2812L43.25 10.7344H48C48.8542 10.7344 49.5365 10.6406 50.0469 10.4531C50.5573 10.2552 50.9271 9.96875 51.1562 9.59375C51.3958 9.21875 51.5156 8.75 51.5156 8.1875C51.5156 7.54167 51.3958 7.02083 51.1562 6.625C50.9167 6.22917 50.5365 5.94271 50.0156 5.76562C49.5052 5.57812 48.8438 5.48438 48.0312 5.48438H45.3438V24H39.8594V1.25H48.0312C49.4375 1.25 50.6927 1.38021 51.7969 1.64062C52.901 1.89062 53.8385 2.27604 54.6094 2.79688C55.3906 3.31771 55.9844 3.97396 56.3906 4.76562C56.7969 5.54688 57 6.46875 57 7.53125C57 8.45833 56.8021 9.32812 56.4062 10.1406C56.0104 10.9531 55.349 11.6146 54.4219 12.125C53.5052 12.625 52.25 12.8854 50.6562 12.9062L49.1406 14.3281ZM48.9219 24H41.9531L43.8281 19.7812H48.9219C49.6719 19.7812 50.2708 19.6667 50.7188 19.4375C51.1771 19.1979 51.5052 18.8854 51.7031 18.5C51.9115 18.1042 52.0156 17.6667 52.0156 17.1875C52.0156 16.6042 51.9167 16.099 51.7188 15.6719C51.5312 15.2448 51.2292 14.9167 50.8125 14.6875C50.3958 14.4479 49.8385 14.3281 49.1406 14.3281H44.5312L44.5625 10.7344H50.0781L51.3594 12.1719C52.8802 12.1094 54.0833 12.3229 54.9688 12.8125C55.8646 13.3021 56.5052 13.9479 56.8906 14.75C57.276 15.5521 57.4688 16.3906 57.4688 17.2656C57.4688 18.7552 57.1458 20 56.5 21C55.8646 22 54.9115 22.75 53.6406 23.25C52.3698 23.75 50.7969 24 48.9219 24ZM95.7656 12.1719V13.0938C95.7656 14.8333 95.5208 16.3958 95.0312 17.7812C94.5521 19.1562 93.8698 20.3333 92.9844 21.3125C92.099 22.2812 91.0521 23.026 89.8438 23.5469C88.6354 24.0573 87.3021 24.3125 85.8438 24.3125C84.375 24.3125 83.0312 24.0573 81.8125 23.5469C80.6042 23.026 79.5521 22.2812 78.6562 21.3125C77.7708 20.3333 77.0833 19.1562 76.5938 17.7812C76.1146 16.3958 75.875 14.8333 75.875 13.0938V12.1719C75.875 10.4323 76.1146 8.86979 76.5938 7.48438C77.0833 6.09896 77.7656 4.92188 78.6406 3.95312C79.526 2.97396 80.5729 2.22917 81.7812 1.71875C83 1.19792 84.3438 0.9375 85.8125 0.9375C87.2708 0.9375 88.6042 1.19792 89.8125 1.71875C91.0312 2.22917 92.0833 2.97396 92.9688 3.95312C93.8542 4.92188 94.5417 6.09896 95.0312 7.48438C95.5208 8.86979 95.7656 10.4323 95.7656 12.1719ZM90.2031 13.0938V12.1406C90.2031 11.0156 90.1042 10.026 89.9062 9.17188C89.7188 8.30729 89.4375 7.58333 89.0625 7C88.6875 6.41667 88.224 5.97917 87.6719 5.6875C87.1302 5.38542 86.5104 5.23438 85.8125 5.23438C85.0833 5.23438 84.4479 5.38542 83.9062 5.6875C83.3646 5.97917 82.9115 6.41667 82.5469 7C82.1823 7.58333 81.9062 8.30729 81.7188 9.17188C81.5417 10.026 81.4531 11.0156 81.4531 12.1406V13.0938C81.4531 14.2083 81.5417 15.1979 81.7188 16.0625C81.9062 16.9167 82.1823 17.6406 82.5469 18.2344C82.9219 18.8281 83.3802 19.276 83.9219 19.5781C84.474 19.8802 85.1146 20.0312 85.8438 20.0312C86.5417 20.0312 87.1615 19.8802 87.7031 19.5781C88.2448 19.276 88.6979 18.8281 89.0625 18.2344C89.4375 17.6406 89.7188 16.9167 89.9062 16.0625C90.1042 15.1979 90.2031 14.2083 90.2031 13.0938ZM126.953 1.25H132.438V16.1094C132.438 17.8802 132.068 19.3802 131.328 20.6094C130.589 21.8281 129.552 22.75 128.219 23.375C126.885 24 125.318 24.3125 123.516 24.3125C121.734 24.3125 120.167 24 118.812 23.375C117.469 22.75 116.417 21.8281 115.656 20.6094C114.906 19.3802 114.531 17.8802 114.531 16.1094V1.25H120.031V16.1094C120.031 17.0469 120.167 17.8125 120.438 18.4062C120.708 18.9896 121.104 19.4167 121.625 19.6875C122.146 19.9583 122.776 20.0938 123.516 20.0938C124.266 20.0938 124.896 19.9583 125.406 19.6875C125.917 19.4167 126.302 18.9896 126.562 18.4062C126.823 17.8125 126.953 17.0469 126.953 16.1094V1.25ZM162.906 1.25V24H157.422V1.25H162.906ZM169.75 1.25V5.48438H150.734V1.25H169.75ZM223.453 1.25H228.938V16.1094C228.938 17.8802 228.568 19.3802 227.828 20.6094C227.089 21.8281 226.052 22.75 224.719 23.375C223.385 24 221.818 24.3125 220.016 24.3125C218.234 24.3125 216.667 24 215.312 23.375C213.969 22.75 212.917 21.8281 212.156 20.6094C211.406 19.3802 211.031 17.8802 211.031 16.1094V1.25H216.531V16.1094C216.531 17.0469 216.667 17.8125 216.938 18.4062C217.208 18.9896 217.604 19.4167 218.125 19.6875C218.646 19.9583 219.276 20.0938 220.016 20.0938C220.766 20.0938 221.396 19.9583 221.906 19.6875C222.417 19.4167 222.802 18.9896 223.062 18.4062C223.323 17.8125 223.453 17.0469 223.453 16.1094V1.25ZM260.109 17.9531C260.109 17.599 260.057 17.2812 259.953 17C259.849 16.7083 259.656 16.4375 259.375 16.1875C259.094 15.9375 258.688 15.6875 258.156 15.4375C257.635 15.1771 256.948 14.9062 256.094 14.625C255.094 14.2917 254.13 13.9167 253.203 13.5C252.276 13.0729 251.448 12.5781 250.719 12.0156C249.99 11.4427 249.411 10.776 248.984 10.0156C248.557 9.24479 248.344 8.34896 248.344 7.32812C248.344 6.34896 248.562 5.46875 249 4.6875C249.438 3.89583 250.047 3.22396 250.828 2.67188C251.62 2.10938 252.547 1.68229 253.609 1.39062C254.672 1.08854 255.833 0.9375 257.094 0.9375C258.76 0.9375 260.229 1.22917 261.5 1.8125C262.781 2.38542 263.781 3.20312 264.5 4.26562C265.229 5.31771 265.594 6.5625 265.594 8H260.141C260.141 7.42708 260.021 6.92188 259.781 6.48438C259.552 6.04688 259.203 5.70312 258.734 5.45312C258.266 5.20312 257.677 5.07812 256.969 5.07812C256.281 5.07812 255.703 5.18229 255.234 5.39062C254.766 5.59896 254.411 5.88021 254.172 6.23438C253.932 6.57812 253.812 6.95833 253.812 7.375C253.812 7.71875 253.906 8.03125 254.094 8.3125C254.292 8.58333 254.568 8.83854 254.922 9.07812C255.286 9.31771 255.724 9.54688 256.234 9.76562C256.755 9.98438 257.339 10.1979 257.984 10.4062C259.193 10.7917 260.266 11.224 261.203 11.7031C262.151 12.1719 262.948 12.7083 263.594 13.3125C264.25 13.9062 264.745 14.5833 265.078 15.3438C265.422 16.1042 265.594 16.9635 265.594 17.9219C265.594 18.9427 265.396 19.849 265 20.6406C264.604 21.4323 264.036 22.1042 263.297 22.6562C262.557 23.1979 261.672 23.6094 260.641 23.8906C259.609 24.1719 258.458 24.3125 257.188 24.3125C256.021 24.3125 254.87 24.1667 253.734 23.875C252.609 23.5729 251.589 23.1146 250.672 22.5C249.755 21.875 249.021 21.0781 248.469 20.1094C247.927 19.1302 247.656 17.9688 247.656 16.625H253.156C253.156 17.2917 253.245 17.8542 253.422 18.3125C253.599 18.7708 253.859 19.1406 254.203 19.4219C254.547 19.6927 254.969 19.8906 255.469 20.0156C255.969 20.1302 256.542 20.1875 257.188 20.1875C257.885 20.1875 258.448 20.0885 258.875 19.8906C259.302 19.6823 259.615 19.4115 259.812 19.0781C260.01 18.7344 260.109 18.3594 260.109 17.9531Z" fill="#E0E0E0"/>
<path d="M0.3125 32H266.688V33.5625H0.3125V32Z" fill="#E0E0E0"/>
</g>
<defs>
<filter id="filter0_i_1688_249" x="0.25" y="0.9375" width="266.438" height="36.625" filterUnits="userSpaceOnUse" color-interpolation-filters="sRGB">
<feFlood flood-opacity="0" result="BackgroundImageFix"/>
<feBlend mode="normal" in="SourceGraphic" in2="BackgroundImageFix" result="shape"/>
<feColorMatrix in="SourceAlpha" type="matrix" values="0 0 0 0 0 0 0 0 0 0 0 0 0 0 0 0 0 0 127 0" result="hardAlpha"/>
<feOffset dy="4"/>
<feGaussianBlur stdDeviation="2"/>
<feComposite in2="hardAlpha" operator="arithmetic" k2="-1" k3="1"/>
<feColorMatrix type="matrix" values="0 0 0 0 0 0 0 0 0 0 0 0 0 0 0 0 0 0 0.25 0"/>
<feBlend mode="normal" in2="shape" result="effect1_innerShadow_1688_249"/>
</filter>
</defs>
</svg>
