<svg width="137" height="34" viewBox="0 0 137 34" fill="none" xmlns="http://www.w3.org/2000/svg">
<g filter="url(#filter0_i_1688_177)">
<path d="M21.0513 1.25V24H15.5825L7.53564 9.84375V24H2.05127V1.25H7.53564L15.5825 15.4062V1.25H21.0513ZM56.1763 19.7812V24H44.0513V19.7812H56.1763ZM46.0044 1.25V24H40.52V1.25H46.0044ZM54.6138 10.2812V14.3594H44.0513V10.2812H54.6138ZM56.2231 1.25V5.48438H44.0513V1.25H56.2231ZM79.6763 21.9375L84.2075 1.25H86.9106L88.3794 3.01562L83.5513 24H80.5669L79.6763 21.9375ZM78.4731 1.25L82.3013 22.0938L81.3169 24H77.8638L73.0356 1.25H78.4731ZM90.8638 21.9844L94.6606 1.25H100.083L95.2544 24H91.8169L90.8638 21.9844ZM88.8638 1.25L93.5044 22.0625L92.5669 24H89.5825L84.645 2.98438L86.1763 1.25H88.8638ZM129.958 17.9531C129.958 17.599 129.905 17.2812 129.801 17C129.697 16.7083 129.504 16.4375 129.223 16.1875C128.942 15.9375 128.536 15.6875 128.004 15.4375C127.484 15.1771 126.796 14.9062 125.942 14.625C124.942 14.2917 123.978 13.9167 123.051 13.5C122.124 13.0729 121.296 12.5781 120.567 12.0156C119.838 11.4427 119.26 10.776 118.833 10.0156C118.405 9.24479 118.192 8.34896 118.192 7.32812C118.192 6.34896 118.411 5.46875 118.848 4.6875C119.286 3.89583 119.895 3.22396 120.676 2.67188C121.468 2.10938 122.395 1.68229 123.458 1.39062C124.52 1.08854 125.681 0.9375 126.942 0.9375C128.609 0.9375 130.077 1.22917 131.348 1.8125C132.629 2.38542 133.629 3.20312 134.348 4.26562C135.077 5.31771 135.442 6.5625 135.442 8H129.989C129.989 7.42708 129.869 6.92188 129.629 6.48438C129.4 6.04688 129.051 5.70312 128.583 5.45312C128.114 5.20312 127.525 5.07812 126.817 5.07812C126.129 5.07812 125.551 5.18229 125.083 5.39062C124.614 5.59896 124.26 5.88021 124.02 6.23438C123.78 6.57812 123.661 6.95833 123.661 7.375C123.661 7.71875 123.754 8.03125 123.942 8.3125C124.14 8.58333 124.416 8.83854 124.77 9.07812C125.135 9.31771 125.572 9.54688 126.083 9.76562C126.603 9.98438 127.187 10.1979 127.833 10.4062C129.041 10.7917 130.114 11.224 131.051 11.7031C131.999 12.1719 132.796 12.7083 133.442 13.3125C134.098 13.9062 134.593 14.5833 134.926 15.3438C135.27 16.1042 135.442 16.9635 135.442 17.9219C135.442 18.9427 135.244 19.849 134.848 20.6406C134.452 21.4323 133.885 22.1042 133.145 22.6562C132.405 23.1979 131.52 23.6094 130.489 23.8906C129.458 24.1719 128.306 24.3125 127.036 24.3125C125.869 24.3125 124.718 24.1667 123.583 23.875C122.458 23.5729 121.437 23.1146 120.52 22.5C119.603 21.875 118.869 21.0781 118.317 20.1094C117.775 19.1302 117.504 17.9688 117.504 16.625H123.004C123.004 17.2917 123.093 17.8542 123.27 18.3125C123.447 18.7708 123.708 19.1406 124.051 19.4219C124.395 19.6927 124.817 19.8906 125.317 20.0156C125.817 20.1302 126.39 20.1875 127.036 20.1875C127.734 20.1875 128.296 20.0885 128.723 19.8906C129.15 19.6823 129.463 19.4115 129.661 19.0781C129.859 18.7344 129.958 18.3594 129.958 17.9531Z" fill="#E0E0E0"/>
<path d="M0.316895 32H136.536V33.5625H0.316895V32Z" fill="#E0E0E0"/>
</g>
<defs>
<filter id="filter0_i_1688_177" x="0.316895" y="0.9375" width="136.219" height="36.625" filterUnits="userSpaceOnUse" color-interpolation-filters="sRGB">
<feFlood flood-opacity="0" result="BackgroundImageFix"/>
<feBlend mode="normal" in="SourceGraphic" in2="BackgroundImageFix" result="shape"/>
<feColorMatrix in="SourceAlpha" type="matrix" values="0 0 0 0 0 0 0 0 0 0 0 0 0 0 0 0 0 0 127 0" result="hardAlpha"/>
<feOffset dy="4"/>
<feGaussianBlur stdDeviation="2"/>
<feComposite in2="hardAlpha" operator="arithmetic" k2="-1" k3="1"/>
<feColorMatrix type="matrix" values="0 0 0 0 0 0 0 0 0 0 0 0 0 0 0 0 0 0 0.25 0"/>
<feBlend mode="normal" in2="shape" result="effect1_innerShadow_1688_177"/>
</filter>
</defs>
</svg>
