<svg width="385" height="34" viewBox="0 0 385 34" fill="none" xmlns="http://www.w3.org/2000/svg">
<g filter="url(#filter0_i_1688_931)">
<path d="M12.844 1.25V24H7.35962V1.25H12.844ZM19.6877 1.25V5.48438H0.672119V1.25H19.6877ZM56.8284 12.1719V13.0938C56.8284 14.8333 56.5836 16.3958 56.094 17.7812C55.6148 19.1562 54.9325 20.3333 54.0471 21.3125C53.1617 22.2812 52.1148 23.026 50.9065 23.5469C49.6982 24.0573 48.3648 24.3125 46.9065 24.3125C45.4377 24.3125 44.094 24.0573 42.8752 23.5469C41.6669 23.026 40.6148 22.2812 39.719 21.3125C38.8336 20.3333 38.1461 19.1562 37.6565 17.7812C37.1773 16.3958 36.9377 14.8333 36.9377 13.0938V12.1719C36.9377 10.4323 37.1773 8.86979 37.6565 7.48438C38.1461 6.09896 38.8284 4.92188 39.7034 3.95312C40.5888 2.97396 41.6357 2.22917 42.844 1.71875C44.0627 1.19792 45.4065 0.9375 46.8752 0.9375C48.3336 0.9375 49.6669 1.19792 50.8752 1.71875C52.094 2.22917 53.1461 2.97396 54.0315 3.95312C54.9169 4.92188 55.6044 6.09896 56.094 7.48438C56.5836 8.86979 56.8284 10.4323 56.8284 12.1719ZM51.2659 13.0938V12.1406C51.2659 11.0156 51.1669 10.026 50.969 9.17188C50.7815 8.30729 50.5002 7.58333 50.1252 7C49.7502 6.41667 49.2867 5.97917 48.7346 5.6875C48.193 5.38542 47.5732 5.23438 46.8752 5.23438C46.1461 5.23438 45.5107 5.38542 44.969 5.6875C44.4273 5.97917 43.9742 6.41667 43.6096 7C43.245 7.58333 42.969 8.30729 42.7815 9.17188C42.6044 10.026 42.5159 11.0156 42.5159 12.1406V13.0938C42.5159 14.2083 42.6044 15.1979 42.7815 16.0625C42.969 16.9167 43.245 17.6406 43.6096 18.2344C43.9846 18.8281 44.443 19.276 44.9846 19.5781C45.5367 19.8802 46.1773 20.0312 46.9065 20.0312C47.6044 20.0312 48.2242 19.8802 48.7659 19.5781C49.3075 19.276 49.7607 18.8281 50.1252 18.2344C50.5002 17.6406 50.7815 16.9167 50.969 16.0625C51.1669 15.1979 51.2659 14.2083 51.2659 13.0938ZM84.7502 16.2812H79.094V12.0469H84.7502C85.5211 12.0469 86.1461 11.9167 86.6252 11.6562C87.1044 11.3958 87.4534 11.0365 87.6721 10.5781C87.9013 10.1094 88.0159 9.58333 88.0159 9C88.0159 8.375 87.9013 7.79688 87.6721 7.26562C87.4534 6.73438 87.1044 6.30729 86.6252 5.98438C86.1461 5.65104 85.5211 5.48438 84.7502 5.48438H81.1565V24H75.6721V1.25H84.7502C86.5732 1.25 88.1409 1.58333 89.4534 2.25C90.7763 2.91667 91.7919 3.83333 92.5002 5C93.2086 6.15625 93.5627 7.47917 93.5627 8.96875C93.5627 10.4375 93.2086 11.7188 92.5002 12.8125C91.7919 13.9062 90.7763 14.7604 89.4534 15.375C88.1409 15.9792 86.5732 16.2812 84.7502 16.2812ZM139.203 1.25H143.672L148.75 17.0781L153.828 1.25H158.297L150.563 24H146.938L139.203 1.25ZM136.485 1.25H141.11L141.969 18.6875V24H136.485V1.25ZM156.391 1.25H161.031V24H155.531V18.6875L156.391 1.25ZM196.203 19.7812V24H184.078V19.7812H196.203ZM186.031 1.25V24H180.547V1.25H186.031ZM194.641 10.2812V14.3594H184.078V10.2812H194.641ZM196.25 1.25V5.48438H184.078V1.25H196.25ZM217.172 1.25H221.641L226.719 17.0781L231.797 1.25H236.266L228.531 24H224.906L217.172 1.25ZM214.453 1.25H219.078L219.938 18.6875V24H214.453V1.25ZM234.36 1.25H239V24H233.5V18.6875L234.36 1.25ZM267.797 14.3281H261.938L261.906 10.7344H266.656C267.511 10.7344 268.193 10.6406 268.703 10.4531C269.214 10.2552 269.584 9.96875 269.813 9.59375C270.052 9.21875 270.172 8.75 270.172 8.1875C270.172 7.54167 270.052 7.02083 269.813 6.625C269.573 6.22917 269.193 5.94271 268.672 5.76562C268.162 5.57812 267.5 5.48438 266.688 5.48438H264V24H258.516V1.25H266.688C268.094 1.25 269.349 1.38021 270.453 1.64062C271.558 1.89062 272.495 2.27604 273.266 2.79688C274.047 3.31771 274.641 3.97396 275.047 4.76562C275.453 5.54688 275.656 6.46875 275.656 7.53125C275.656 8.45833 275.459 9.32812 275.063 10.1406C274.667 10.9531 274.005 11.6146 273.078 12.125C272.162 12.625 270.906 12.8854 269.313 12.9062L267.797 14.3281ZM267.578 24H260.61L262.485 19.7812H267.578C268.328 19.7812 268.927 19.6667 269.375 19.4375C269.834 19.1979 270.162 18.8854 270.36 18.5C270.568 18.1042 270.672 17.6667 270.672 17.1875C270.672 16.6042 270.573 16.099 270.375 15.6719C270.188 15.2448 269.886 14.9167 269.469 14.6875C269.052 14.4479 268.495 14.3281 267.797 14.3281H263.188L263.219 10.7344H268.735L270.016 12.1719C271.537 12.1094 272.74 12.3229 273.625 12.8125C274.521 13.3021 275.162 13.9479 275.547 14.75C275.933 15.5521 276.125 16.3906 276.125 17.2656C276.125 18.7552 275.802 20 275.156 21C274.521 22 273.568 22.75 272.297 23.25C271.026 23.75 269.453 24 267.578 24ZM310.828 19.7812V24H298.703V19.7812H310.828ZM300.656 1.25V24H295.172V1.25H300.656ZM309.266 10.2812V14.3594H298.703V10.2812H309.266ZM310.875 1.25V5.48438H298.703V1.25H310.875ZM329.078 1.25H338.031C339.781 1.25 341.302 1.51042 342.594 2.03125C343.886 2.55208 344.88 3.32292 345.578 4.34375C346.287 5.36458 346.641 6.625 346.641 8.125C346.641 9.42708 346.438 10.5156 346.031 11.3906C345.625 12.2656 345.058 12.9896 344.328 13.5625C343.61 14.125 342.771 14.5885 341.813 14.9531L340.016 15.9688H332.5L332.469 11.7344H338.031C338.729 11.7344 339.308 11.6094 339.766 11.3594C340.224 11.1094 340.568 10.7552 340.797 10.2969C341.037 9.82812 341.156 9.27083 341.156 8.625C341.156 7.96875 341.037 7.40625 340.797 6.9375C340.558 6.46875 340.203 6.10938 339.735 5.85938C339.276 5.60938 338.709 5.48438 338.031 5.48438H334.563V24H329.078V1.25ZM341.531 24L336.5 13.9375L342.313 13.9062L347.406 23.7656V24H341.531ZM377.672 17.9531C377.672 17.599 377.62 17.2812 377.516 17C377.412 16.7083 377.219 16.4375 376.938 16.1875C376.656 15.9375 376.25 15.6875 375.719 15.4375C375.198 15.1771 374.511 14.9062 373.656 14.625C372.656 14.2917 371.693 13.9167 370.766 13.5C369.839 13.0729 369.011 12.5781 368.281 12.0156C367.552 11.4427 366.974 10.776 366.547 10.0156C366.12 9.24479 365.906 8.34896 365.906 7.32812C365.906 6.34896 366.125 5.46875 366.563 4.6875C367 3.89583 367.61 3.22396 368.391 2.67188C369.183 2.10938 370.11 1.68229 371.172 1.39062C372.235 1.08854 373.396 0.9375 374.656 0.9375C376.323 0.9375 377.792 1.22917 379.063 1.8125C380.344 2.38542 381.344 3.20312 382.063 4.26562C382.792 5.31771 383.156 6.5625 383.156 8H377.703C377.703 7.42708 377.584 6.92188 377.344 6.48438C377.115 6.04688 376.766 5.70312 376.297 5.45312C375.828 5.20312 375.24 5.07812 374.531 5.07812C373.844 5.07812 373.266 5.18229 372.797 5.39062C372.328 5.59896 371.974 5.88021 371.735 6.23438C371.495 6.57812 371.375 6.95833 371.375 7.375C371.375 7.71875 371.469 8.03125 371.656 8.3125C371.854 8.58333 372.13 8.83854 372.485 9.07812C372.849 9.31771 373.287 9.54688 373.797 9.76562C374.318 9.98438 374.901 10.1979 375.547 10.4062C376.755 10.7917 377.828 11.224 378.766 11.7031C379.714 12.1719 380.511 12.7083 381.156 13.3125C381.813 13.9062 382.308 14.5833 382.641 15.3438C382.985 16.1042 383.156 16.9635 383.156 17.9219C383.156 18.9427 382.959 19.849 382.563 20.6406C382.167 21.4323 381.599 22.1042 380.86 22.6562C380.12 23.1979 379.235 23.6094 378.203 23.8906C377.172 24.1719 376.021 24.3125 374.75 24.3125C373.584 24.3125 372.433 24.1667 371.297 23.875C370.172 23.5729 369.151 23.1146 368.235 22.5C367.318 21.875 366.584 21.0781 366.031 20.1094C365.49 19.1302 365.219 17.9688 365.219 16.625H370.719C370.719 17.2917 370.808 17.8542 370.985 18.3125C371.162 18.7708 371.422 19.1406 371.766 19.4219C372.11 19.6927 372.531 19.8906 373.031 20.0156C373.531 20.1302 374.104 20.1875 374.75 20.1875C375.448 20.1875 376.011 20.0885 376.438 19.8906C376.865 19.6823 377.177 19.4115 377.375 19.0781C377.573 18.7344 377.672 18.3594 377.672 17.9531Z" fill="#E0E0E0"/>
<path d="M0.0939941 32H384.25V33.5625H0.0939941V32Z" fill="#E0E0E0"/>
</g>
<defs>
<filter id="filter0_i_1688_931" x="0.0939941" y="0.9375" width="384.156" height="36.625" filterUnits="userSpaceOnUse" color-interpolation-filters="sRGB">
<feFlood flood-opacity="0" result="BackgroundImageFix"/>
<feBlend mode="normal" in="SourceGraphic" in2="BackgroundImageFix" result="shape"/>
<feColorMatrix in="SourceAlpha" type="matrix" values="0 0 0 0 0 0 0 0 0 0 0 0 0 0 0 0 0 0 127 0" result="hardAlpha"/>
<feOffset dy="4"/>
<feGaussianBlur stdDeviation="2"/>
<feComposite in2="hardAlpha" operator="arithmetic" k2="-1" k3="1"/>
<feColorMatrix type="matrix" values="0 0 0 0 0 0 0 0 0 0 0 0 0 0 0 0 0 0 0.25 0"/>
<feBlend mode="normal" in2="shape" result="effect1_innerShadow_1688_931"/>
</filter>
</defs>
</svg>
